<svg width="24" height="24" viewBox="0 0 24 24" fill="none" xmlns="http://www.w3.org/2000/svg">
<g id="ICON" clip-path="url(#clip0_81_2969)">
<path id="Vector 3837" d="M10.5735 14.6367L16.208 10.3142C16.6326 9.98838 17.2217 9.98321 17.652 10.3015L23.5135 14.6372C23.8195 14.8634 23.9999 15.2214 23.9999 15.6019V22.8C23.9999 23.4627 23.4627 24 22.7999 24H11.3039C10.6411 24 10.1039 23.4627 10.1039 22.8V15.5888C10.1039 15.2157 10.2774 14.8638 10.5735 14.6367Z" fill="url(#paint0_linear_81_2969)"/>
<path id="Vector 3832" d="M17.7541 6.56106L13.5742 3.48115C12.7537 2.87652 11.6407 2.85615 10.7985 3.43035L4.25599 7.8912C3.60031 8.33826 3.20801 9.08055 3.20801 9.87414V18.8241C3.20801 20.1496 4.28252 21.2241 5.60801 21.2241H18.2022C19.5104 21.2241 20.5776 20.1765 20.6018 18.8685L20.7688 9.85285C20.7833 9.07109 20.416 8.3313 19.7845 7.87027" stroke="#272D36" stroke-width="1.2"/>
<path id="Rectangle 96078833" d="M12.1167 13.3174C13.8688 13.3174 15.2895 14.7381 15.2896 16.4902V20.9287H8.94385V16.4902C8.94386 14.7381 10.3646 13.3174 12.1167 13.3174Z" stroke="#272D36" stroke-width="1.2"/>
</g>
<defs>
<linearGradient id="paint0_linear_81_2969" x1="17.0519" y1="9.76392" x2="17.0519" y2="24" gradientUnits="userSpaceOnUse">
<stop stop-color="#FFBCE7"/>
<stop offset="1" stop-color="#F2A3D6"/>
</linearGradient>
<clipPath id="clip0_81_2969">
<rect width="24" height="24" fill="white"/>
</clipPath>
</defs>
</svg>
