<svg width="8" height="9" viewBox="0 0 8 9" fill="none" xmlns="http://www.w3.org/2000/svg">
<g id="icon/share">
<path id="Rectangle 23" d="M6.22397 3.05991C6.6864 3.52233 6.40641 4.31433 5.7561 4.38338L4.14648 4.55429C3.41952 4.63148 2.84517 5.20584 2.76797 5.9328L2.59706 7.54242C2.52801 8.19273 1.73602 8.47271 1.27359 8.01029C1.10745 7.84415 1.02531 7.61181 1.05012 7.37816L1.18743 6.08502C1.36165 4.44428 2.65796 3.14797 4.2987 2.97375L5.59184 2.83644C5.82549 2.81163 6.05783 2.89377 6.22397 3.05991Z" fill="#FFA2DE"/>
<path id="Rectangle 24" d="M4.13496 0.892162C4.31684 0.843428 4.51064 0.869115 4.67354 0.963547L7.11255 2.3774C7.54001 2.6252 7.68653 3.17205 7.44024 3.60037L6.03493 6.04431C5.94107 6.20754 5.78608 6.32669 5.6042 6.37542C4.99521 6.5386 4.49253 5.88467 4.8068 5.33812L5.78054 3.64472C5.87638 3.47805 5.81936 3.26527 5.65303 3.16885L3.96305 2.18919C3.4176 1.873 3.52598 1.05534 4.13496 0.892162Z" fill="#FFA2DE"/>
</g>
</svg>
