<svg width="11" height="11" viewBox="0 0 11 11" fill="none" xmlns="http://www.w3.org/2000/svg">
<g id="icon/girl">
<path id="Vector" d="M6.74302 7.65285L5.46959 7.31163L5.70717 6.42494C6.96515 6.54465 8.16371 5.74661 8.50189 4.48449C8.87875 3.07805 8.04389 1.63204 6.63745 1.25519C5.23101 0.878332 3.785 1.71319 3.40814 3.11963C3.07021 4.3808 3.70892 5.67215 4.85822 6.19747L4.62063 7.08416L3.34719 6.74294C3.11231 6.68 2.87191 6.8188 2.80897 7.05368C2.74604 7.28856 2.88483 7.52896 3.11971 7.5919L4.39315 7.93311L4.05193 9.20655C3.989 9.44143 4.1278 9.68183 4.36267 9.74477C4.59755 9.8077 4.83796 9.66891 4.90089 9.43403L5.24211 8.16059L6.51555 8.50181C6.75042 8.56474 6.99083 8.42595 7.05376 8.19107C7.1167 7.95619 6.9779 7.71579 6.74302 7.65285ZM4.2571 3.34711C4.50834 2.40948 5.47235 1.85291 6.40997 2.10415C7.3476 2.35538 7.90417 3.31939 7.65293 4.25702C7.4017 5.19464 6.43769 5.75121 5.50006 5.49998C4.56244 5.24874 4.00586 4.28473 4.2571 3.34711Z" fill="#FF64C8"/>
</g>
</svg>
