<svg width="32" height="32" viewBox="0 0 32 32" fill="none" xmlns="http://www.w3.org/2000/svg">
<g id="Frame">
<g id="Vector">
<path d="M26.5621 4H25.3682C24.9789 4.00288 24.6415 4.2855 24.5521 4.68347C24.4079 5.2862 23.9032 5.71589 23.3034 5.71589C22.7036 5.71589 22.1989 5.2862 22.0547 4.68347C21.9826 4.27973 21.6221 4 21.2386 4H18.597C18.2076 4.00288 17.8702 4.2855 17.7808 4.68347C17.6366 5.2862 17.132 5.71589 16.5321 5.71589C15.9323 5.71589 15.4276 5.2862 15.2834 4.68347C15.2113 4.27973 14.8508 4 14.4673 4H11.5892C11.197 4.00577 10.8625 4.2855 10.7731 4.68347C10.6289 5.2862 10.1242 5.71589 9.52436 5.71589C8.92452 5.71589 8.41985 5.2862 8.27566 4.68347C8.20644 4.27973 7.84596 4 7.45953 4H6.25696C4.74582 4 3.5 5.31504 3.5 6.90404V24.9541C3.5 26.5431 4.74871 27.8581 6.25696 27.8581L21.5673 27.91H26.7294C28.154 27.91 29.3105 26.7824 29.3105 25.3953V6.90404C29.322 5.31215 28.0733 4 26.5621 4ZM27.0149 19.3046V25.3895C27.0149 25.4904 26.9053 25.5972 26.7409 25.5972H21.5817L6.27426 25.5452H6.2685C6.06086 25.5452 5.81862 25.2857 5.81862 24.9483V6.90404C5.81862 6.56663 6.06086 6.30708 6.2685 6.30708H6.49055C7.13365 7.35392 8.267 8.02297 9.53301 8.02297C10.799 8.02297 11.9324 7.35392 12.5755 6.30708H13.4983C14.1414 7.35392 15.2748 8.02297 16.5408 8.02297C17.8068 8.02297 18.9401 7.35392 19.5832 6.30708H20.2667C20.9098 7.35392 22.0432 8.02297 23.3092 8.02297C24.5752 8.02297 25.7085 7.35392 26.3516 6.30708H26.5679C26.7756 6.30708 27.0207 6.56663 27.0207 6.90404V19.3046H27.0149Z" fill="#333333"/>
<path d="M24.529 18.4308H18.8796C18.3749 18.4308 17.9423 18.8836 17.9423 19.4257C17.9452 19.9708 18.3605 20.412 18.8796 20.4235H24.529C25.0654 20.4235 25.4692 19.965 25.4634 19.4286C25.4634 18.8864 25.0366 18.4308 24.529 18.4308ZM24.604 12.7381H18.8796C18.3749 12.7381 17.9423 13.1908 17.9423 13.7301C17.9452 14.2752 18.3605 14.7193 18.8796 14.7279H24.604C25.1404 14.7279 25.5384 14.2723 25.5384 13.733C25.5384 13.1908 25.1116 12.7381 24.604 12.7381ZM12.613 11.1433V10.4656C12.613 9.88882 12.1112 9.41875 11.494 9.41875C10.8769 9.41875 10.3751 9.88882 10.3751 10.4656V11.1866C8.91299 11.5701 7.85173 12.6833 7.70177 14.0185C7.61237 14.7971 7.85173 15.5758 8.37082 16.2102C8.98797 16.9658 9.98866 17.4935 11.2691 17.7387C12.4515 17.9636 13.1378 18.5202 13.0628 19.1892C12.9994 19.7401 12.4399 20.2966 11.494 20.2966C10.2944 20.2966 9.67432 19.7689 9.50994 19.319C9.31384 18.7797 8.68228 18.4856 8.10551 18.6644C7.81136 18.7538 7.56911 18.9556 7.43934 19.2152C7.31533 19.4603 7.30091 19.7401 7.39608 19.9967C7.72772 20.8994 8.6794 21.9491 10.3751 22.2807V22.9584C10.3751 23.5352 10.8769 24.0024 11.494 24.0024C12.1112 24.0024 12.613 23.5323 12.613 22.9584V22.2375C14.0751 21.8539 15.1363 20.7407 15.2863 19.4084C15.3757 18.6298 15.1363 17.8511 14.6172 17.2138C14.0001 16.4582 12.9994 15.9305 11.719 15.6882C10.5366 15.4604 9.85024 14.9067 9.92522 14.2377C9.98866 13.6869 10.5481 13.1303 11.494 13.1303C12.6937 13.1303 13.3137 13.6551 13.4781 14.105C13.6742 14.6414 14.3029 14.9356 14.8826 14.7596C15.1767 14.6702 15.419 14.4684 15.5487 14.2059C15.6698 13.9608 15.6872 13.6811 15.592 13.4244C15.2603 12.5247 14.3087 11.4749 12.613 11.1433Z" fill="#333333"/>
</g>
</g>
</svg>
