<svg width="16" height="16" viewBox="0 0 16 16" fill="none" xmlns="http://www.w3.org/2000/svg">
<g id="icon">
<path id="Vector" d="M9.02916 6.8763L9.88084 3.6978L10.6803 5.0848C10.8748 5.42161 11.3049 5.53686 11.6402 5.342C11.977 5.14755 12.0923 4.71741 11.8978 4.38061L10.259 1.53771C10.1596 1.36548 9.9985 1.25437 9.8196 1.20967C9.64232 1.15893 9.44684 1.17611 9.27501 1.27404L6.43281 2.91626C6.09601 3.11071 5.98075 3.54085 6.17521 3.87766C6.36966 4.21446 6.7998 4.32972 7.1351 4.13486L8.52099 3.33343L7.66932 6.51193C5.65656 6.3204 3.73997 7.59918 3.19847 9.62007C2.59469 11.8734 3.93006 14.1885 6.18036 14.7915C8.43067 15.3945 10.7447 14.0572 11.3485 11.8039C11.89 9.78296 10.8695 7.71722 9.02916 6.8763ZM6.54473 13.4317C5.04453 13.0297 4.15442 11.4858 4.5568 9.98404C4.95918 8.48233 6.502 7.5903 8.00221 7.99228C9.50241 8.39426 10.3925 9.93818 9.99013 11.4399C9.58775 12.9416 8.04493 13.8336 6.54473 13.4317Z" fill="#16C4FF"/>
</g>
</svg>
