<svg width="10" height="10" viewBox="0 0 10 10" fill="none" xmlns="http://www.w3.org/2000/svg">
<g id="icon">
<path id="Vector" d="M5.64316 4.29787L6.17546 2.31131L6.67516 3.17819C6.79669 3.38869 7.06553 3.46072 7.27509 3.33894C7.48559 3.2174 7.55762 2.94857 7.43609 2.73806L6.41184 0.961252C6.34969 0.853609 6.249 0.784166 6.13719 0.756228C6.02639 0.724516 5.90421 0.735253 5.79682 0.796458L4.02045 1.82284C3.80995 1.94438 3.73791 2.21321 3.85944 2.42372C3.98098 2.63422 4.24982 2.70626 4.45937 2.58447L5.32556 2.08358L4.79326 4.07014C3.53529 3.95043 2.33742 4.74967 1.99898 6.01273C1.62162 7.42106 2.45622 8.86801 3.86267 9.24487C5.26911 9.62172 6.71537 8.78592 7.09273 7.3776C7.43117 6.11453 6.7934 4.82344 5.64316 4.29787ZM4.0904 8.39497C3.15277 8.14373 2.59645 7.17878 2.84794 6.24021C3.09943 5.30164 4.06369 4.74412 5.00132 4.99536C5.93894 5.2466 6.49526 6.21155 6.24377 7.15012C5.99228 8.08869 5.02802 8.6462 4.0904 8.39497Z" fill="#16C4FF"/>
</g>
</svg>
