<svg width="24" height="24" viewBox="0 0 24 24" fill="none" xmlns="http://www.w3.org/2000/svg">
<g id="ICON" clip-path="url(#clip0_81_2974)">
<path id="Ellipse 3934" d="M7.20005 20.3138C9.31056 21.5323 11.8055 21.9026 14.1789 21.3495C16.5523 20.7963 18.6266 19.3613 19.981 17.3353C21.3353 15.3093 21.8685 12.844 21.4723 10.4394C21.0762 8.03478 19.7803 5.87085 17.8476 4.38642C15.9148 2.90199 13.4899 2.20818 11.0644 2.44569C8.63903 2.6832 6.39472 3.83424 4.78665 5.66541C3.17858 7.49657 2.32712 9.87078 2.40494 12.3066C2.48276 14.7423 3.48404 17.0573 5.20573 18.7821C7.2692 17.1206 12.4895 14.5915 16.8629 17.7674" stroke="#ADB9CD" stroke-width="1.2" stroke-linecap="round" stroke-linejoin="round"/>
<circle id="Ellipse 3935" cx="12" cy="11.0971" r="3" stroke="#ADB9CD" stroke-width="1.2"/>
</g>
<defs>
<clipPath id="clip0_81_2974">
<rect width="24" height="24" fill="white"/>
</clipPath>
</defs>
</svg>
