<svg width="32" height="32" viewBox="0 0 32 32" fill="none" xmlns="http://www.w3.org/2000/svg">
<g id="Frame">
<path id="Vector" d="M15.9599 1C22.1044 1 27.0858 5.98144 27.0858 12.1259C27.0858 15.4207 25.6543 18.3809 23.3779 20.4184L23.3772 29.9274C23.3773 30.0449 23.3495 30.1609 23.296 30.2656C23.2425 30.3703 23.1649 30.4608 23.0696 30.5297C22.9742 30.5985 22.8639 30.6437 22.7477 30.6615C22.6314 30.6793 22.5126 30.6692 22.4011 30.632L15.9629 28.4906L9.518 30.632C9.40648 30.669 9.28776 30.679 9.17162 30.6611C9.05548 30.6433 8.94524 30.5981 8.85 30.5293C8.75475 30.4605 8.67721 30.37 8.62377 30.2654C8.57033 30.1607 8.54252 30.0449 8.54263 29.9274L8.54188 20.4184C7.37393 19.3759 6.43974 18.0981 5.8007 16.6689C5.16165 15.2397 4.8322 13.6915 4.83399 12.1259C4.83399 5.98144 9.81543 1 15.9599 1ZM21.152 22.2994L21.0474 22.3491C19.4521 23.0845 17.7166 23.4661 15.9599 23.4677C14.2032 23.4661 12.4677 23.0845 10.8724 22.3491L10.7671 22.2994V27.8713L15.9636 26.146L21.152 27.8705V22.2994ZM15.9599 2.96335C10.8998 2.96335 6.79734 7.0651 6.79734 12.1259C6.79734 16.0096 9.21315 19.3281 12.6244 20.6624C14.7806 21.4357 17.1385 21.4357 19.2947 20.6624C22.7066 19.3288 25.1224 16.0096 25.1224 12.1259C25.1224 7.06584 21.0207 2.96335 15.9599 2.96335ZM11.6319 13.8853C12.4308 15.3665 14.0945 16.3359 15.9614 16.3359C17.7593 16.3359 19.3696 15.4362 20.1996 14.0455L20.2886 13.8882L22.0154 14.8228C20.8694 16.9427 18.5396 18.3 15.9614 18.3C13.4581 18.3 11.1906 17.022 10.0112 15.0083L9.9037 14.8169L11.6319 13.8853Z" fill="#333333" stroke="#333333" stroke-width="0.2"/>
</g>
</svg>
