<svg width="24" height="24" viewBox="0 0 24 24" fill="none" xmlns="http://www.w3.org/2000/svg">
<g id="ICON" clip-path="url(#clip0_81_2973)">
<path id="Vector 3837" d="M17.8195 23.213C18.1916 22.7202 18.7263 22.0545 19.3582 21.3905C21.9899 20.305 24 19.3059 24 14.8671C24 10.7556 20.5947 7.99649 16.6424 7.99646C12.8369 7.99643 9.43174 11.0617 9.40457 14.8671C9.37195 19.4361 12.2552 20.5053 14.8192 21.3905C15.511 21.6293 16.2459 22.5149 16.7252 23.1887C16.9835 23.5519 17.5509 23.5687 17.8195 23.213Z" fill="url(#paint0_linear_81_2973)"/>
<path id="Vector 3836" d="M15.4769 18.8715C14.7991 19.5836 14.0935 20.3627 13.5016 21.0284C12.8747 21.7336 11.6725 21.4983 11.2192 20.6707C10.7864 19.8807 10.2094 19.1043 9.53501 18.8715C6.17851 17.7127 2.40419 16.3131 2.44689 10.3319C2.48246 5.35037 6.94004 1.33779 11.9217 1.33783C17.0955 1.33787 21.5533 4.94969 21.5533 10.3319C21.5533 14.9147 17.9564 16.4454 16.7288 17.7007" stroke="#272D36" stroke-width="1.2"/>
<rect id="Rectangle 96078839" x="7.57837" y="8.13678" width="2.1" height="3" rx="1.05" fill="#272D36"/>
<rect id="Rectangle 96078840" x="14.5732" y="8.13678" width="2.1" height="3" rx="1.05" fill="#272D36"/>
</g>
<defs>
<linearGradient id="paint0_linear_81_2973" x1="16.7022" y1="7.99646" x2="16.7022" y2="24.2863" gradientUnits="userSpaceOnUse">
<stop stop-color="#FFBCE7"/>
<stop offset="1" stop-color="#F2A3D6"/>
</linearGradient>
<clipPath id="clip0_81_2973">
<rect width="24" height="24" fill="white"/>
</clipPath>
</defs>
</svg>
