<svg width="32" height="32" viewBox="0 0 32 32" fill="none" xmlns="http://www.w3.org/2000/svg">
<g id="Frame">
<path id="Vector" d="M14.8396 23.6474L6.83243 16.8298L6.24084 16.2382C5.29751 15.2981 4.77947 14.0445 4.77947 12.7143C4.77947 11.384 5.29751 10.1305 6.24084 9.19033C7.18099 8.25019 8.43451 7.72895 9.76478 7.72895C11.095 7.72895 12.3486 8.24699 13.2887 9.19033L14.8364 10.738L16.3841 9.19033C17.3243 8.25019 18.5778 7.72895 19.9081 7.72895C21.2383 7.72895 22.4919 8.24699 23.4352 9.19033C23.8317 9.58685 24.1451 10.0313 24.3785 10.5078C25.1364 10.4183 26.2205 10.4471 27.2981 11.0003C26.9911 9.6604 26.3164 8.39089 25.2771 7.34842C23.8445 5.91582 21.9387 5.12598 19.9113 5.12598C18.0182 5.12598 16.2338 5.8135 14.8396 7.07022C13.4454 5.8135 11.6579 5.12598 9.76798 5.12598C7.74059 5.12598 5.83473 5.91582 4.40213 7.34842C2.96953 8.78102 2.17969 10.6869 2.17969 12.7143C2.17969 14.7416 2.96953 16.6475 4.40213 18.0801L5.02889 18.7069L14.8396 27.0658L18.2293 24.1782L16.2115 22.4802L14.8396 23.6474Z" fill="#333333"/>
<path id="Vector_2" d="M28.4428 12.9829L28.4236 12.9637C27.4579 12.0076 26.1788 11.4832 24.8197 11.4832C23.7229 11.4832 22.6804 11.8221 21.8042 12.4649L21.7115 12.532L21.6188 12.4649C20.7426 11.8221 19.7001 11.4832 18.6033 11.4832C17.2346 11.4832 15.9491 12.0172 14.9802 12.9829C14.0113 13.9518 13.4805 15.2373 13.4805 16.606C13.4805 17.9746 14.0145 19.2601 14.9802 20.229L15.3544 20.6064L21.7115 26.0234L27.9759 20.6895L28.4428 20.229C30.4414 18.2304 30.4414 14.9815 28.4428 12.9829ZM26.652 18.4351L26.2971 18.7868L21.7115 22.6913L17.1163 18.7772L16.771 18.4319C16.2817 17.9426 16.0131 17.2935 16.0131 16.6028C16.0131 15.9121 16.2817 15.2629 16.771 14.7737C17.2602 14.2844 17.9094 14.0158 18.6001 14.0158C19.2908 14.0158 19.9399 14.2844 20.4292 14.7737L21.7115 16.056L22.9906 14.7737C23.4799 14.2844 24.129 14.0158 24.8197 14.0158C25.5104 14.0158 26.1596 14.2844 26.6489 14.7737C27.6593 15.7841 27.6593 17.4246 26.652 18.4351Z" fill="#333333"/>
</g>
</svg>
