<svg width="14" height="17" viewBox="0 0 14 17" fill="none" xmlns="http://www.w3.org/2000/svg">
<g id="Frame 1410114768">
<path id="Rectangle 96078842" d="M0 8.50012C0 4.832 2.9736 1.8584 6.64172 1.8584C10.3098 1.8584 13.2834 4.832 13.2834 8.50012V15.1418H6.64172C2.9736 15.1418 0 12.1682 0 8.50012Z" fill="#93D361"/>
<path id="3" d="M6.01106 8.22L6.03506 8.268C7.41506 8.064 9.05906 8.892 9.05906 10.896C9.05906 12.588 7.88306 13.668 6.13106 13.668C4.85906 13.668 3.73106 13.056 3.17906 11.916L4.00706 11.34C4.49906 12.24 5.18306 12.708 6.16706 12.708C7.23506 12.708 7.99106 11.952 7.99106 10.896C7.99106 9.78 7.25906 9.084 6.09506 9.084C5.74706 9.084 5.41106 9.18 5.09906 9.36L4.52306 8.556L7.16306 5.58H3.45506V4.62H8.55506V5.496L6.01106 8.22Z" fill="white"/>
</g>
</svg>
