<svg width="24" height="24" viewBox="0 0 24 24" fill="none" xmlns="http://www.w3.org/2000/svg">
<g id="ICON" clip-path="url(#clip0_81_2971)">
<circle id="Ellipse 3937" cx="16.2" cy="16.2" r="7.8" fill="url(#paint0_linear_81_2971)"/>
<path id="Ellipse 3931" d="M5.21177 5.21181C3.48125 6.94233 2.47699 9.26843 2.40424 11.7147C2.3315 14.1609 3.19577 16.5426 4.8204 18.3729C6.44503 20.2032 8.70734 21.3439 11.1449 21.5619C13.5825 21.7798 16.0113 21.0586 17.9349 19.5456C19.8585 18.0326 21.1317 15.8421 21.4941 13.4218C21.8565 11.0014 21.2809 8.53404 19.8849 6.52393C18.4889 4.51383 16.3779 3.11279 13.9834 2.60716C12.1533 2.22074 10.2633 2.37962 8.54115 3.04476" stroke="#272D36" stroke-width="1.2" stroke-linecap="round"/>
<path id="Ellipse 3932" d="M11.8085 7.03502C11.0301 7.01222 10.2504 7.1726 9.53481 7.51192C8.39067 8.05446 7.49694 9.01348 7.03628 10.193C6.57563 11.3725 6.58283 12.6833 7.05642 13.8577C7.53002 15.0321 8.43424 15.9812 9.58427 16.5111C10.7343 17.0411 12.0433 17.1118 13.2437 16.7088C14.4441 16.3058 15.4453 15.4596 16.0427 14.3431C16.5211 13.4488 16.7115 12.4351 16.5983 11.439" stroke="#272D36" stroke-width="1.2" stroke-linecap="round"/>
<circle id="Ellipse 3933" cx="14.9092" cy="8.56699" r="1.8" stroke="#272D36" stroke-width="1.2"/>
</g>
<defs>
<linearGradient id="paint0_linear_81_2971" x1="16.2" y1="8.40002" x2="16.2" y2="24" gradientUnits="userSpaceOnUse">
<stop stop-color="#FFBCE7"/>
<stop offset="1" stop-color="#F2A3D6"/>
</linearGradient>
<clipPath id="clip0_81_2971">
<rect width="24" height="24" fill="white"/>
</clipPath>
</defs>
</svg>
