<svg width="81" height="80" viewBox="0 0 81 80" fill="none" xmlns="http://www.w3.org/2000/svg">
<g id="Frame">
<g id="icon/add">
<rect id="Rectangle 23" x="68.6289" y="58.1094" width="16" height="4" rx="2" transform="rotate(90 68.6289 58.1094)" fill="#FFA2DE"/>
<rect id="Rectangle 24" x="68.6289" y="68.1094" width="10" height="4" rx="2" transform="rotate(-180 68.6289 68.1094)" fill="#FFA2DE"/>
<circle id="Ellipse 22" cx="72.6289" cy="66.1094" r="2" fill="#FFA2DE"/>
</g>
<path id="Vector" d="M47.9045 74.1097H20.1474C12.5608 74.1097 6.40039 67.9594 6.40039 60.3627V19.6374C6.40039 12.0508 12.5506 5.89038 20.1474 5.89038H60.8828C68.4694 5.89038 74.6298 12.0406 74.6298 19.6374V47.8598C74.6298 48.9725 73.7194 49.8829 72.6067 49.8829C71.494 49.8829 70.5836 48.9725 70.5836 47.8598V19.6374C70.5836 14.2762 66.244 9.9366 60.8828 9.9366H20.1474C14.7862 9.9366 10.4466 14.2762 10.4466 19.6374V60.3728C10.4466 65.734 14.7862 70.0736 20.1474 70.0736H47.9045C49.0172 70.0736 49.9276 70.984 49.9276 72.0967C49.9276 73.2094 49.0172 74.1097 47.9045 74.1097Z" fill="#FFA2DE"/>
<path id="Vector_2" d="M50.8379 43.8439L35.0475 52.958C32.0836 54.6675 28.3813 52.5331 28.3813 49.1141V30.8757C28.3813 27.4567 32.0836 25.3122 35.0475 27.0318L50.8379 36.1459C53.7916 37.8656 53.7916 42.1343 50.8379 43.8439Z" fill="#FFA2DE"/>
</g>
</svg>
