<svg width="14" height="14" viewBox="0 0 14 14" fill="none" xmlns="http://www.w3.org/2000/svg">
<g id="Frame 2136638046">
<g id="Frame" clip-path="url(#clip0_26968_4218)">
<path id="Vector" d="M6.09465 13.1126C5.98473 13.1914 5.8587 13.2448 5.72564 13.2691C5.59258 13.2933 5.4558 13.2877 5.32516 13.2527C5.19453 13.2177 5.07328 13.1542 4.97016 13.0666C4.86703 12.9791 4.7846 12.8698 4.72881 12.7466C4.59469 12.4506 4.37122 12.2041 4.08978 12.0416C3.80835 11.8792 3.48308 11.809 3.15969 11.8408C3.02511 11.8541 2.88928 11.8373 2.76196 11.7917C2.63465 11.7462 2.51903 11.6729 2.42342 11.5773C2.32782 11.4817 2.25461 11.366 2.20908 11.2387C2.16354 11.1114 2.14681 10.9755 2.16009 10.841C2.19196 10.5175 2.1217 10.1923 1.95918 9.91081C1.79666 9.62937 1.55006 9.40592 1.25401 9.27184C1.13081 9.21605 1.02152 9.13362 0.934009 9.0305C0.846502 8.92737 0.782958 8.80613 0.747955 8.67549C0.712951 8.54485 0.707361 8.40807 0.731586 8.27501C0.755811 8.14195 0.809249 8.01592 0.888048 7.906C1.0773 7.64189 1.17908 7.32513 1.17908 7.0002C1.17908 6.67528 1.0773 6.35852 0.888048 6.0944C0.809249 5.98448 0.755811 5.85846 0.731586 5.7254C0.707361 5.59234 0.712951 5.45556 0.747955 5.32492C0.782958 5.19428 0.846502 5.07303 0.934009 4.96991C1.02152 4.86679 1.13081 4.78436 1.25401 4.72856C1.55001 4.59445 1.79655 4.37098 1.95902 4.08954C2.12148 3.8081 2.1917 3.48284 2.15981 3.15944C2.14657 3.02487 2.16334 2.88903 2.20891 2.76172C2.25448 2.63441 2.32772 2.51878 2.42335 2.42318C2.51898 2.32757 2.63462 2.25437 2.76195 2.20883C2.88928 2.1633 3.02512 2.14657 3.15969 2.15984C3.48312 2.19171 3.8084 2.12145 4.08984 1.95894C4.37128 1.79642 4.59474 1.54981 4.72881 1.25376C4.7846 1.13056 4.86703 1.02127 4.97016 0.933765C5.07328 0.846258 5.19453 0.782713 5.32516 0.74771C5.4558 0.712707 5.59258 0.707117 5.72564 0.731342C5.8587 0.755567 5.98473 0.809004 6.09465 0.887804C6.35876 1.07706 6.67553 1.17883 7.00045 1.17883C7.32537 1.17883 7.64213 1.07706 7.90625 0.887804C8.01617 0.809004 8.1422 0.755567 8.27526 0.731342C8.40832 0.707117 8.54509 0.712707 8.67573 0.74771C8.80637 0.782713 8.92762 0.846258 9.03074 0.933765C9.13386 1.02127 9.21629 1.13056 9.27209 1.25376C9.4062 1.54976 9.62968 1.79631 9.91111 1.95877C10.1926 2.12124 10.5178 2.19146 10.8412 2.15956C10.9758 2.14632 11.1116 2.16309 11.2389 2.20866C11.3662 2.25424 11.4819 2.32747 11.5775 2.42311C11.6731 2.51874 11.7463 2.63438 11.7918 2.76171C11.8374 2.88903 11.8541 3.02487 11.8408 3.15944C11.8089 3.48287 11.8792 3.80816 12.0417 4.0896C12.2042 4.37104 12.4508 4.59449 12.7469 4.72856C12.8701 4.78436 12.9794 4.86679 13.0669 4.96991C13.1544 5.07303 13.2179 5.19428 13.2529 5.32492C13.2879 5.45556 13.2935 5.59234 13.2693 5.7254C13.2451 5.85846 13.1916 5.98448 13.1128 6.0944C12.9236 6.35852 12.8218 6.67528 12.8218 7.0002C12.8218 7.32513 12.9236 7.64189 13.1128 7.906C13.1916 8.01592 13.2451 8.14195 13.2693 8.27501C13.2935 8.40807 13.2879 8.54485 13.2529 8.67549C13.2179 8.80613 13.1544 8.92737 13.0669 9.0305C12.9794 9.13362 12.8701 9.21605 12.7469 9.27184C12.4509 9.40596 12.2043 9.62943 12.0419 9.91087C11.8794 10.1923 11.8092 10.5176 11.8411 10.841C11.8543 10.9755 11.8376 11.1114 11.792 11.2387C11.7464 11.366 11.6732 11.4816 11.5775 11.5772C11.4819 11.6728 11.3663 11.746 11.2389 11.7916C11.1116 11.8371 10.9758 11.8538 10.8412 11.8406C10.5178 11.8087 10.1925 11.879 9.91105 12.0415C9.62961 12.204 9.40616 12.4506 9.27209 12.7466C9.21629 12.8698 9.13386 12.9791 9.03074 13.0666C8.92762 13.1542 8.80637 13.2177 8.67573 13.2527C8.54509 13.2877 8.40832 13.2933 8.27526 13.2691C8.1422 13.2448 8.01617 13.1914 7.90625 13.1126C7.64213 12.9233 7.32537 12.8216 7.00045 12.8216C6.67553 12.8216 6.35876 12.9233 6.09465 13.1126Z" fill="#20272F"/>
<path id="Vector_2" d="M9.7535 5.07106C9.8296 4.99469 9.93215 4.9505 10.0399 4.94766C10.1477 4.94481 10.2525 4.98352 10.3325 5.05577C10.4125 5.12802 10.4617 5.22828 10.4698 5.33579C10.478 5.4433 10.4444 5.54982 10.3762 5.6333L10.3474 5.66522L6.78354 9.22906C6.71004 9.30255 6.6119 9.34618 6.5081 9.3515C6.4043 9.35683 6.30221 9.32348 6.22158 9.2579L6.18966 9.22906L4.20978 7.24946C4.1333 7.17341 4.08902 7.07086 4.08609 6.96304C4.08317 6.85523 4.12183 6.75043 4.19407 6.67034C4.26631 6.59026 4.36658 6.54103 4.47413 6.53286C4.58167 6.52469 4.68823 6.55821 4.77174 6.62646L4.80366 6.6553L6.48646 8.33782L9.7535 5.07134V5.07106Z" fill="white"/>
</g>
</g>
<defs>
<clipPath id="clip0_26968_4218">
<rect width="14" height="14" fill="white" transform="translate(0 0.000244141)"/>
</clipPath>
</defs>
</svg>
