<svg width="14" height="17" viewBox="0 0 14 17" fill="none" xmlns="http://www.w3.org/2000/svg">
<g id="Frame 1410114768">
<path id="Rectangle 96078842" d="M0 8.50012C0 4.832 2.9736 1.8584 6.64172 1.8584C10.3098 1.8584 13.2834 4.832 13.2834 8.50012V15.1418H6.64172C2.9736 15.1418 0 12.1682 0 8.50012Z" fill="#FDBB65"/>
<path id="2" d="M7.70741 9.84L5.24741 12.54H9.39941V13.5H3.85541V12.636L6.77141 9.396C7.69541 8.364 8.15141 7.8 8.15141 6.996C8.15141 6.036 7.49141 5.412 6.54341 5.412C5.73941 5.412 5.09141 5.892 4.65941 6.744L3.85541 6.192C4.27541 5.184 5.24741 4.452 6.56741 4.452C8.13941 4.452 9.21941 5.388 9.21941 6.936C9.21941 7.932 8.76341 8.676 7.70741 9.84Z" fill="white"/>
</g>
</svg>
